<svg xmlns="http://www.w3.org/2000/svg" width="705" height="570" fill="none"><g stroke="null"><path fill="#FFD832" d="M526.8 253.478c-.296 2.554-1.773 3.738-4.624 3.244 0 0 .786 4.03-4.524 3.047-5.31-.982-14.852-7.275-14.852-7.275s-2.554.983-5.506-.196c0 0-12.407 4.777-22.332-5.971l-43.485-.446c-55.466.446-59.357-22.068-59.357-22.068l.1 63.109-4.202.867c1.773 18.34 4.668 39.335 8.219 61.393.115.734.235 1.467.355 2.205 3.187 19.629 6.877 40.054 10.74 60.176.147.781.301 1.566.45 2.348 15.316 79.431 33.134 153.361 33.134 153.361h-67.504c-5.089-26.007 25.783-30.302 25.783-30.302l-26.415-98.164-.508-1.884-13.786-51.244s.095 25.49.268 57.344l.014 2.08c.288 52.57.787 121.09 1.414 121.718 1.021 1.016-63.77 0-63.77 0 0-33.584 24.665-31.101 24.665-31.101s-2.65-33.134-5.707-74.827c-.052-.651-.1-1.303-.148-1.96-2.823-38.539-5.962-83.975-7.687-117.262a1356.928 1356.928 0 0 1-1.006-22.467c-.384-11.002-.16-22.02.464-32.692.043-.728.091-1.452.134-2.176 3.053-47.793 13.95-88.105 13.95-88.105l-25.566.542 2.914-8.977c-14.477-6.335-37.552-19.284-44.535-39.584-4.352-12.647-5.28-29.045-4.888-43.868v-.005l-2.09-56.864a2.418 2.418 0 0 1 2.416-2.507c.547 0 1.06.182 1.471.494.407.316.719.762.863 1.29l.647 2.367V43.4a2.088 2.088 0 0 1 4.164-.235l.264 2.324.427-3.752a1.97 1.97 0 0 1 3.896-.12l1.946 9.92 1.015-4.174c.091-.379.24-.747.484-1.054a2.709 2.709 0 0 1 2.986-.891 2.728 2.728 0 0 1 1.346.987c.327.455.513 1.006.513 1.59v15.416l2.784-5.41a2.717 2.717 0 0 1 4.585-.384c.327.436.523.963.537 1.534.191 5.784-.22 22.979-11.482 26.007 0 0 3.877 45.104 11.156 51.412 5.655 4.903 33.944 13.542 46.265 17.151a110.258 110.258 0 0 0 12.216 2.852l.067.009L320.573 125c-11.885-.68-17.66-12.225-9.848-30.224 7.811-18 25.81-12.225 25.81-12.225s-7.682 9.024-1.98 18.234c5.704 9.206 14.147.619 14.147.619a9.347 9.347 0 0 1 9.072 10.898c-.733 4.513-4.763 7.83-9.34 7.772a9.655 9.655 0 0 1-1.725-.182l-3.973 36.795c8.467-1.38 16.265.407 23.31 4.112v.005c.009 0 .019.004.023.009l6.383 4.001 24.25 15.196-3.988 6.657c10.404 15.187 16.135 30.368 16.135 30.368l59.904 9.316s13.154-7.192 32.615 2.296c1.85.902 3.915 1.573 5.507 2.919.556.475 3.263 3.92 2.051 4.816.695-.403 4.107-2.213 5.78.077 1.869 2.554-3.148 7.667-3.148 7.667s15.536 6.791 15.242 9.35z"/><path fill="#FFFAEC" d="M289.68 133.216s-12.235 68.774-23.478 89.275c-11.242 20.496-54.377-13.035-54.377-13.035 14.817 41.367 10.73 143.974 4.687 222.86l-.172 2.208a2709.521 2709.521 0 0 1-4.069 47.056c-.067.69-.134 1.375-.196 2.056-2.923 30.426-5.348 50.49-5.348 50.49 34.83 3.734 29.233 32.699 29.233 32.699h-69.042l2.21-65.333.076-2.268 2.938-86.931.067-2.056 1.553-45.914c-3.613 9.162-10.299 22.763-18.507 38.366-.297.56-.595 1.126-.896 1.692-28.657 54.225-74.74 131.145-74.74 131.145 33.599 6.029 25.24 31.298 25.24 31.298H53.418L31.68 524.8c37.447-59.463 63.186-106.978 80.677-144.855.273-.599.552-1.193.82-1.788 26.204-57.147 33.454-92.087 33.92-112.962-8.41.057-13.658-.412-13.658-.412l3.819-23.151c-27.259 46.173-57.522 56.677-57.522 56.677v-.215c-5.391 4.969-17.08 9.388-21.637 10.983a2.886 2.886 0 0 1-3.144-.839 2.9 2.9 0 0 1 .926-4.509l1.649-.8-19.083 5.123a2.932 2.932 0 0 1-2.018-5.478l2.908-1.38-7.979 1.893a3.267 3.267 0 0 1-1.562-6.345l8.53-2.19-5.343.608a2.891 2.891 0 0 1-3.058-1.936 2.896 2.896 0 0 1 2.31-3.8l18.075-2.665s-14.707-.926-15.57-5.233c-.863-4.308 17.669-3.661 30.167-5.818 12.499-2.156 14.828 2.076 14.828 2.076 25.198-21.877 34.365-53.942 46.82-89.6.255-.734.512-1.467.771-2.2 4.16-11.818 9.83-18.987 15.595-23.276 3.019-2.248 6.066-3.71 8.937-4.63 8.598-2.77 15.618-.737 15.618-.737l-3.853-35.903c-.508.076-1.03.115-1.562.115-5.794 0-10.49-4.697-10.49-10.49 0-5.795 4.696-10.491 10.49-10.491 2.794 0 5.334 1.098 7.212 2.88 0 0 11.741 4.15 6.465-20.76 7.616-3.378 18.1 3.594 23.42 15.584 5.324 11.985 3.465 24.44-4.15 27.82-1.525.675-3.159.93-4.845.823l3.958 28.782c13.227.33 53.563 39.013 53.563 39.013l25.13-65.466s-12.435-38.659-4.058-41.554l-2.056-5.616a2.813 2.813 0 0 1 1.318-3.455 2.815 2.815 0 0 1 3.77 1.088l.016.024 1.672 2.932-.124-.45a2.355 2.355 0 0 1 4.404-1.625l3.22 6.987-.182-.834a1.272 1.272 0 0 1 .934-1.514 1.278 1.278 0 0 1 1.414.594c2.302 3.978 11.575 22.045 6.538 47.391z"/><path fill="#FFD832" d="M50.357 248.125a5.67 5.67 0 1 0 0-11.34 5.67 5.67 0 0 0 0 11.34z"/><path fill="#F55B67" d="m239.887 277.392 18.956-20.501 9.68 24.401-28.636-3.9z"/><path fill="#276EF1" d="m457.008 165.085 11.311 3.56-8.378 11.52-2.933-15.08z"/><path fill="#F4C8F2" d="m526.649 288.906-7.819-16.955 24.06-10.143a51.408 51.408 0 0 0 26.476-25.338l8.917-18.802 16.244 7.622-10.635 24.305a51.402 51.402 0 0 1-27.318 26.84l-29.925 12.471z"/><path fill="#FFD832" stroke="#FFD832" stroke-width="1.5" d="m278.785 34.408.576.634-.576-.634-6.053 5.483-5.482-6.053c-7.352-8.117-6.731-20.658 1.385-28.01l6.054-5.482 5.483 6.053c7.351 8.116 6.732 20.656-1.387 28.01z"/><path fill="#FFD832" d="m372.452 164.821-6.383-4.001a51.378 51.378 0 0 1 6.383 4.001z"/><path fill="#282516" stroke="#282516" stroke-linecap="round" stroke-linejoin="round" stroke-miterlimit="10" stroke-width="1.4" d="M469.055 321.287c-2.18 7.807-.159 9.105-.417 14.592-.296 6.427-6.632 6.873-6.632 6.873a10.808 10.808 0 0 0-2.31-.249 10.8 10.8 0 0 0-3.93.734c-1.997-3.35-4.437-9.685-.282-16.778 6.13-10.466 15.104-9.833 15.104-9.833a63.124 63.124 0 0 0-1.533 4.661z"/><path fill="#282516" d="M167.134 66.044c6.605 0 11.96-5.355 11.96-11.96 0-6.606-5.355-11.96-11.96-11.96s-11.96 5.354-11.96 11.96c0 6.605 5.355 11.96 11.96 11.96z"/><path stroke="#282516" stroke-linecap="round" stroke-linejoin="round" stroke-miterlimit="10" stroke-width="1.4" d="M158.163 111.568s3.736-2.693 7.819-.782M191.67 94.865l3.19 4.956c.457.71.3 1.65-.362 2.173M185.585 101.995s.492-2.398 3.135-3.196M196.107 95.353s1.829-1.625 4.424-.681M189.765 104.022s1.352 3.688 5.593 2.213M159.744 121.804s8.321.494 11.368-5.929M181.537 122.646s2.077 3.748 8.627 4.272M247.687 194.713l4.485 7.984M211.826 209.454l-7.506-23.296M137.258 241.632l20.09-45.33M173.762 364.321s19.87-39.424 21.597-78.4M320.573 125.57s5.66.551 9.618-2.147M340.07 118.307s2.617 2.303 6.639 2.227M344.37 110.07s5.058-1.924 7.752 2.308M463.5 351.897s-5.322-.975-7.204 3.676M317.6 95.448l-3.223 5.2a1.75 1.75 0 0 0 .53 2.385M315.181 107.046s4.288.934 6.048-4.013"/><path fill="#282516" d="M340.794 84.03a.994.994 0 0 0-.218-.19c-11.033-6.848-21.993-.065-22.102.005a.96.96 0 0 0 .346 1.753c4.59.81 8.5 1.08 11.676 1.08 1.33 0 2.523-.048 3.593-.123-1.615 3.49-2.88 8.83.467 14.236 5.703 9.206 14.146.618 14.146.618l.005-.02c.12-.515 2.72-12.275-7.913-17.36z"/><path stroke="#282516" stroke-linecap="round" stroke-linejoin="round" stroke-miterlimit="10" stroke-width="1.4" d="m408.85 217.04-9.317 6.773M338.485 385.68l-23.558-87.144M473.497 412.456c-8.7 16.565-12.655 31.887-12.823 50.618-.278 31.13 11.47 60.13 19.217 89.834 0 0 24.065-3.142 40.288 5.088"/><path stroke="#282516" stroke-linecap="round" stroke-linejoin="round" stroke-miterlimit="10" stroke-width="1.4" d="M481.224 488.446c12.87-19.505 21.86-31.809 36.525-50.007 5.731-7.112 11.64-14.176 18.227-20.519 14.01-13.49 30.743-11.143 44.36 1.046M504.008 420.808l1.686 33.12M562.38 472.132l4.978-20.087M557.996 396.615l5.414 4.464M485.675 325.972l4.541 4.541c.59.59.673 1.518.199 2.205M484.49 334.905s2.37 3.828 6.746 1.732M483.579 357.602s4.675 2.415 9.082 1.117M570.144 340.117l3.963-2.35M560.23 314.631s2.373-15.736 7.119-15.103c4.744.632 1.265 17.318 1.265 17.318"/><path stroke="#282516" stroke-linecap="round" stroke-linejoin="round" stroke-miterlimit="10" stroke-width="1.4" d="M569.287 312.866s3.856 3.323 7.244-1.365"/><path stroke="#282516" stroke-linecap="round" stroke-linejoin="round" stroke-miterlimit="10" stroke-width="1.4" d="M572.323 314.006s-3.475 5.332 2.344 6.706M578.294 316.624s-1.117.898-2.147 2.141c-1.746 2.107-1.086 5.293 1.333 6.57M492.836 560.029s17.31-1.686 18.727 7.243M479.891 552.908l-5.498 5.087M630.6 544.112s3.477-6.045 8.47-6.297M379.196 536.971a25.105 25.105 0 0 1 13.316 2.015M300.98 535.87a25.105 25.105 0 0 1 13.317 2.015M206.436 534.77a25.105 25.105 0 0 0-13.317 2.015M79.618 535.525a25.105 25.105 0 0 0-13.316 2.015"/><path fill="#282516" d="M184.709 97.45c1.223-1.85 1.5-3.822.615-4.407-.883-.584-2.591.442-3.814 2.292-1.224 1.85-1.499 3.822-.615 4.406.884.584 2.59-.441 3.814-2.291zM196.191 92.229c2.03 0 3.676-.786 3.676-1.756s-1.646-1.756-3.676-1.756c-2.03 0-3.676.786-3.676 1.756s1.646 1.756 3.676 1.756z"/><path fill="#FFD832" d="M180.073 112.654a3.035 3.035 0 1 0 0-6.07 3.035 3.035 0 0 0 0 6.07z"/><path fill="#FFFAEC" d="M328.417 110.152a3.035 3.035 0 1 0 0-6.07 3.035 3.035 0 0 0 0 6.07z"/><path fill="#FFD832" d="M477.54 343.335a3.035 3.035 0 1 0 0-6.07 3.035 3.035 0 0 0 0 6.07z"/><path stroke="#282516" stroke-linecap="round" stroke-linejoin="round" stroke-miterlimit="10" stroke-width="1.4" d="m232.068 48.24 1.872 12.943M236.737 45.493l2.05 14.695M242.724 50.11l.455 10.078M249.35 63.416l-1.78 6.919M245.775 85.162l-3.354.318M46.805 286.403l9.564.355M34.972 294.933l16.615-1.187M37.203 301.7l15.966-2.732M492.497 233.063s13.706 6.937 16.43 3.324"/><path stroke="#282516" stroke-linecap="round" stroke-linejoin="round" stroke-miterlimit="10" stroke-width="1.4" d="M490.61 246.05a140.347 140.347 0 0 1 5.594-3.953c1.512-1.015 3.043-2.007 4.625-2.91 1.35-.773 3.37-2.422 5.01-1.607 1.296.645 1.433 2.312 1.102 3.561-.759 2.866-3.176 5.308-5.231 7.3-1.403 1.36-2.89 2.634-4.414 3.857M511.558 244.132l-8.755 8.362M522.177 256.72l-14.516-8.408M323.903 101.67s-.491-2.397-3.134-3.195M313.383 95.029s-1.829-1.625-4.425-.681"/><path fill="#282516" d="M328.586 99.392c.883-.584.608-2.557-.615-4.407-1.223-1.85-2.931-2.875-3.815-2.29-.884.584-.609 2.556.615 4.406 1.223 1.85 2.93 2.875 3.815 2.291zM313.299 91.905c2.03 0 3.676-.786 3.676-1.756s-1.646-1.756-3.676-1.756c-2.03 0-3.677.786-3.677 1.756s1.647 1.756 3.677 1.756zM481.224 331.879a1.363 1.363 0 1 0-.001-2.726 1.363 1.363 0 0 0 0 2.726zM489.818 325.972a1.363 1.363 0 1 0-.001-2.726 1.363 1.363 0 0 0 0 2.726zM478.166 328.09c1.223-1.85 1.498-3.824.615-4.408-.883-.584-2.591.442-3.814 2.291-1.224 1.85-1.5 3.824-.615 4.408.883.584 2.59-.442 3.814-2.291zM487.863 322.213c2.03 0 3.677-.786 3.677-1.756s-1.647-1.756-3.677-1.756c-2.03 0-3.676.787-3.676 1.756 0 .97 1.647 1.756 3.676 1.756z"/><path stroke="#282516" stroke-linecap="round" stroke-linejoin="round" stroke-miterlimit="10" stroke-width="1.4" d="m55.882 303.728 5.27-2.029M468.754 226.357l-1.097 4.057M149.177 215.444s-6.976-17.393-25.356-19.357M218.635 214.301s1.3-25.876 14.568-32.738M219.344 250.382c-25.542 12.46-55.307 14.703-72.247 14.813"/><path stroke="#276EF1" stroke-linecap="round" stroke-linejoin="round" stroke-miterlimit="10" stroke-width="1.4" d="m281.71 172.132 101.01 14.5 14.077-112.893-112.902-11.944-2.163 23.435"/><path stroke="#282516" stroke-linecap="round" stroke-linejoin="round" stroke-miterlimit="10" stroke-width="1.4" d="M268.758 87.693s5.957 6.684 6.522 14.677M273.354 82.215s7.192 9.716 8.039 18.745M280.797 86.744s4.264 7.445 4.828 13.463M59.904 478.552s23.688 17.319 41.423 20.175M169.203 499.224s18.115 5.448 40.855-3.112"/><path fill="#FFD832" d="M366.068 160.82a.038.038 0 0 0-.024-.01v-.004l.024.014z"/><path stroke="#282516" stroke-linecap="round" stroke-linejoin="round" stroke-miterlimit="10" stroke-width="1.4" d="m372.121 223.814-15.8-32.202M301.076 196.234l4.335-12.498M364.782 208.856s15.243-4.113 27.932-22.181M315.477 156.588s9.263 8.132 27.259.105M298.85 507.216s19.717 5.925 40.305-3.132M370.718 505.471s24.669 3.171 33.983-7.307M167.479 157.338s10.466 8.483 26.643-1.637M431.708 427.877c6.287 4.681 16.423 9.977 31.792 12.397M448.035 390.129l-2.847 3.302"/><path stroke="#282516" stroke-linecap="round" stroke-linejoin="round" stroke-miterlimit="10" stroke-width="1.4" d="M674.66 564.97h-63.847l-28.432-54.498-.915-1.753-19.088-36.585s-16.514 74.491-42.2 85.863c0 0 8.809 3.513 8.075 9.277h-69.718c-6.426-12.939-12.158-26.28-17.405-39.737-5.646-14.472-11.382-29.256-13.984-44.644-2.636-15.599-.201-31.39 2.856-46.733.512-2.56 1.069-5.353 1.705-8.282-6.254-4.648-8.698-8.693-8.698-8.693l22.18-25.754c4.04-5.286 9.162-9.297 15.751-10.97 3.771-.954 7.725-.92 11.535-.23l-3.316-23.439a10.887 10.887 0 0 1-10.537 5.455c-5.13-.492-9.28-4.635-9.773-9.765a10.892 10.892 0 0 1 6.915-11.245 10.882 10.882 0 0 1 6.24-.485s6.334-.446 6.632-6.873c.26-5.487-1.764-6.785.417-14.592l1.533-4.663s23.755-.383 30.394 26.558c1.556 6.307-1.677 12.907-7.714 15.307-.197.078-.4.155-.607.23l7.443 28.998 42.608-2.501.536 15.507c3.83-.734 7.912-1.644 12.244-2.78a6.142 6.142 0 0 0 4.48-4.753c1.606-8.162 4.338-29.937-.9-69.263 0 0-4.706-33.986 0-35.208 4.71-1.222 5.793 11.665 5.793 11.665s2.037-1.357 4.07.268c0 0 1.087 1.764.814 3.527 0 0 2.305-3.527 5.017-1.222 2.712 2.304 1.764 8.545 1.764 8.545s2.305 1.562 1.764 5.123c0 0 2.44 1.117 2.171 3.422-.272 2.305-2.986 5.29-2.986 5.29s2.747 8.727-3.374 12.432c0 0 24.456 73.82 6.23 81.2 0 0 10.663 15.004 23.875 44.357a1652.327 1652.327 0 0 0 6.302 13.82c12.823 27.868 28.557 60.67 28.557 60.67s35.962-4.767 35.594 27.154zM543.645 412.212l-.397-11.488M505.694 440.53l9.9.592"/><path stroke="#282516" stroke-linecap="round" stroke-linejoin="round" stroke-miterlimit="10" stroke-width="1.4" d="M472.476 382.232s1.995 22.453 19.132 21.26c12.966-.902 8.496-15.773 8.496-15.773M460.668 466.898s8.174 9.286 27.798 9.605M592.655 530.164s21.206-6.756 32.605-21.413M289.68 133.216s-12.235 68.774-23.478 89.275c-11.242 20.496-54.377-13.035-54.377-13.035 14.817 41.367 10.73 143.974 4.687 222.86l-.172 2.208a2709.521 2709.521 0 0 1-4.069 47.056c-.067.69-.134 1.375-.196 2.056-2.923 30.426-5.348 50.49-5.348 50.49 34.83 3.734 29.233 32.699 29.233 32.699h-69.042l2.21-65.333.076-2.268 2.938-86.931.067-2.056 1.553-45.914c-3.613 9.162-10.299 22.763-18.507 38.366-.297.56-.595 1.126-.896 1.692-28.657 54.225-74.74 131.145-74.74 131.145 33.599 6.029 25.24 31.298 25.24 31.298H53.418L31.68 524.8c37.447-59.463 63.186-106.978 80.677-144.855.273-.599.552-1.193.82-1.788 26.204-57.147 33.454-92.087 33.92-112.962-8.41.057-13.658-.412-13.658-.412l3.819-23.151c-27.259 46.173-57.522 56.677-57.522 56.677v-.215c-5.391 4.969-17.08 9.388-21.637 10.983a2.886 2.886 0 0 1-3.144-.839 2.9 2.9 0 0 1 .926-4.509l1.649-.8-19.083 5.123a2.932 2.932 0 0 1-2.018-5.478l2.908-1.38-7.979 1.893a3.267 3.267 0 0 1-1.562-6.345l8.53-2.19-5.343.608a2.891 2.891 0 0 1-3.058-1.936 2.896 2.896 0 0 1 2.31-3.8l18.075-2.665s-14.707-.926-15.57-5.233c-.863-4.308 17.669-3.661 30.167-5.818 12.499-2.156 14.828 2.076 14.828 2.076 25.198-21.877 34.365-53.942 46.82-89.6.255-.734.512-1.467.771-2.2 4.16-11.818 9.83-18.987 15.595-23.276 3.019-2.248 6.066-3.71 8.937-4.63 8.598-2.77 15.618-.737 15.618-.737l-3.853-35.903c-.508.076-1.03.115-1.562.115-5.794 0-10.49-4.697-10.49-10.49 0-5.795 4.696-10.491 10.49-10.491 2.794 0 5.334 1.098 7.212 2.88 0 0 11.741 4.15 6.465-20.76 7.616-3.378 18.1 3.594 23.42 15.584 5.324 11.985 3.465 24.44-4.15 27.82-1.525.675-3.159.93-4.845.823l3.958 28.782c13.227.33 53.563 39.013 53.563 39.013l25.13-65.466s-12.435-38.659-4.058-41.554l-2.056-5.616a2.813 2.813 0 0 1 1.318-3.455 2.815 2.815 0 0 1 3.77 1.088l.016.024 1.672 2.932-.124-.45a2.355 2.355 0 0 1 4.404-1.625l3.22 6.987-.182-.834a1.272 1.272 0 0 1 .934-1.514 1.278 1.278 0 0 1 1.414.594c2.302 3.978 11.575 22.045 6.538 47.391z"/><path fill="#282516" d="M386.034 59.237s-1.748 7.932-19.76 7.662c-5.58-.083-11.728.946-15.922 4.939-2.115 2.014-3.934 5.123-3.317 8.147.697 3.41 4.225 5.516 7.543 5.061 6.856-.941 7.662-2.15 17.34 2.958 9.678 5.108 14.115 2.285 14.115 2.285l.941-7.733s-10.35.071-16.399-5.037c0 0 16.534.134 21.642-4.302l-6.183-13.98z"/><path stroke="#276EF1" stroke-linecap="round" stroke-linejoin="round" stroke-miterlimit="10" stroke-width="1.4" d="M92.422 339.844a30.566 30.566 0 0 1 13.872-5.888M106.294 394.687a30.579 30.579 0 0 1-13.074-5.306M80.616 359.642a30.51 30.51 0 0 1 5.297-13.08M86.496 382.873a30.52 30.52 0 0 1-5.882-13.872M115.653 333.956a30.52 30.52 0 0 1 13.08 5.305M129.525 388.797a30.598 30.598 0 0 1-13.872 5.889M141.34 369a30.551 30.551 0 0 1-5.307 13.081M135.457 345.769a30.662 30.662 0 0 1 5.882 13.872"/><path stroke="#282516" stroke-linecap="round" stroke-linejoin="round" stroke-miterlimit="10" stroke-width="1.4" d="M394.897 140.991c10.147 0 18.374-8.227 18.374-18.374 0-10.147-8.227-18.373-18.374-18.373-10.147 0-18.374 8.226-18.374 18.373s8.227 18.374 18.374 18.374zM444.266 279.429a24.811 24.811 0 0 1-8.237 1.39c-13.816 0-25.015-11.198-25.015-25.015 0-11.522 7.79-21.223 18.39-24.128l4.591 14.75a9.67 9.67 0 0 0-7.315 9.38 9.672 9.672 0 0 0 13.053 9.061l4.533 14.562z"/><path fill="#282516" d="m355.177 291.135 14.192 9.323-1.35-12.668-12.842 3.345z"/><path stroke="#282516" stroke-linecap="round" stroke-linejoin="round" stroke-miterlimit="10" stroke-width="1.4" d="M286.826 289.563s31.51 10.038 85.396-2.64"/><path fill="#282516" d="m146.841 277.677 11.09-12.826-10.159.535-.93 12.291zM123.367 199.94l9.46-7.476-7.638 1.402-1.822 6.073z"/><path stroke="#F4C8F2" stroke-linecap="round" stroke-linejoin="round" stroke-miterlimit="10" stroke-width="1.4" d="M97.085 81.135 209.348 67.94l13.54 111.144-112.765 15.883L97.085 81.135z"/><path fill="#282516" d="M187.574 83.502a.953.953 0 0 0-.565-.67c-17.809-7.456-25.403 6.59-25.78 7.317-3.609-1.815-18.267-7.955-33.502 3.045-15.81 11.406-11.972 32.19-7.424 38.865-13.993 1.678-24.838 13.59-24.838 28.035 0 15.59 12.642 28.23 28.235 28.23.963 0 1.917-.047 2.856-.143.255-.734.512-1.466.771-2.2 4.16-11.817 9.83-18.986 15.595-23.275 3.019-2.248 6.066-3.71 8.937-4.63 8.598-2.77 15.618-.738 15.618-.738l-3.853-35.903c-.508.077-1.03.115-1.562.115-5.794 0-10.49-4.696-10.49-10.49 0-5.794 4.696-10.49 10.49-10.49 2.795 0 5.334 1.097 7.213 2.88 0 0 9.844 3.475 7.45-15.072 7.638-.774 10.486-3.865 10.63-4.027a.955.955 0 0 0 .22-.849zM280.413 181.651l8.98-7.52-7.157-1.003-1.823 8.523zM295.22 458.936l13.694-16.095-14.915.143 1.222 15.952z"/><path stroke="#282516" stroke-linecap="round" stroke-linejoin="round" stroke-miterlimit="10" stroke-width="1.4" d="M313.14 387.21h-55.346v55.346h55.346V387.21z"/><path fill="#282516" d="m433.35 428.492 8.824-10.975-18.29 2.348 9.466 8.627z"/><path stroke="#F55B67" stroke-linecap="round" stroke-linejoin="round" stroke-miterlimit="10" stroke-width="1.4" d="m411.851 308.623 113.87-11.723 9.42 107.34-112.13 14.945-11.16-110.562z"/></g></svg>